ModelForces
version=1
nRows=8
nColumns=71
inDegrees=no

This file contains the forces exerted on a model during a simulation.

A force is a generalized force, meaning that it can be either a force (N) or a torque (Nm).

Units are S.I. units (second, meters, Newtons, ...)
Angles are in degrees.

endheader
time	semimem_r	semiten_r	bifemlh_r	bifemsh_r	sar_r	grac_r	rect_fem_r	vas_med_r	vas_int_r	vas_lat_r	med_gas_r	lat_gas_r	contactForce_femur_lat_meniscii_l.femur_lat_l.force.X	contactForce_femur_lat_meniscii_l.femur_lat_l.force.Y	contactForce_femur_lat_meniscii_l.femur_lat_l.force.Z	contactForce_femur_lat_meniscii_l.femur_lat_l.torque.X	contactForce_femur_lat_meniscii_l.femur_lat_l.torque.Y	contactForce_femur_lat_meniscii_l.femur_lat_l.torque.Z	contactForce_femur_lat_meniscii_l.meniscus_lat_l.force.X	contactForce_femur_lat_meniscii_l.meniscus_lat_l.force.Y	contactForce_femur_lat_meniscii_l.meniscus_lat_l.force.Z	contactForce_femur_lat_meniscii_l.meniscus_lat_l.torque.X	contactForce_femur_lat_meniscii_l.meniscus_lat_l.torque.Y	contactForce_femur_lat_meniscii_l.meniscus_lat_l.torque.Z	contactForce_femur_med_meniscii_l.femur_med_l.force.X	contactForce_femur_med_meniscii_l.femur_med_l.force.Y	contactForce_femur_med_meniscii_l.femur_med_l.force.Z	contactForce_femur_med_meniscii_l.femur_med_l.torque.X	contactForce_femur_med_meniscii_l.femur_med_l.torque.Y	contactForce_femur_med_meniscii_l.femur_med_l.torque.Z	contactForce_femur_med_meniscii_l.meniscus_med_l.force.X	contactForce_femur_med_meniscii_l.meniscus_med_l.force.Y	contactForce_femur_med_meniscii_l.meniscus_med_l.force.Z	contactForce_femur_med_meniscii_l.meniscus_med_l.torque.X	contactForce_femur_med_meniscii_l.meniscus_med_l.torque.Y	contactForce_femur_med_meniscii_l.meniscus_med_l.torque.Z	contactForce_femur_lat_meniscii_r.femur_lat_r.force.X	contactForce_femur_lat_meniscii_r.femur_lat_r.force.Y	contactForce_femur_lat_meniscii_r.femur_lat_r.force.Z	contactForce_femur_lat_meniscii_r.femur_lat_r.torque.X	contactForce_femur_lat_meniscii_r.femur_lat_r.torque.Y	contactForce_femur_lat_meniscii_r.femur_lat_r.torque.Z	contactForce_femur_lat_meniscii_r.meniscus_lat_r.force.X	contactForce_femur_lat_meniscii_r.meniscus_lat_r.force.Y	contactForce_femur_lat_meniscii_r.meniscus_lat_r.force.Z	contactForce_femur_lat_meniscii_r.meniscus_lat_r.torque.X	contactForce_femur_lat_meniscii_r.meniscus_lat_r.torque.Y	contactForce_femur_lat_meniscii_r.meniscus_lat_r.torque.Z	contactForce_femur_med_meniscii_r.femur_med_r.force.X	contactForce_femur_med_meniscii_r.femur_med_r.force.Y	contactForce_femur_med_meniscii_r.femur_med_r.force.Z	contactForce_femur_med_meniscii_r.femur_med_r.torque.X	contactForce_femur_med_meniscii_r.femur_med_r.torque.Y	contactForce_femur_med_meniscii_r.femur_med_r.torque.Z	contactForce_femur_med_meniscii_r.meniscus_med_r.force.X	contactForce_femur_med_meniscii_r.meniscus_med_r.force.Y	contactForce_femur_med_meniscii_r.meniscus_med_r.force.Z	contactForce_femur_med_meniscii_r.meniscus_med_r.torque.X	contactForce_femur_med_meniscii_r.meniscus_med_r.torque.Y	contactForce_femur_med_meniscii_r.meniscus_med_r.torque.Z	aACL_R	pACL_R	aPCL_R	pPCL_R	aMCL_R	aLCL_R	aPCL_L	pPCL_L	aMCL_L	aLCL_L
      0.15866968	      0.00000000	     53.51520669	      0.00000000	     79.45631934	     18.55120375	     20.45204449	     40.70936776	      0.00000000	      0.00000000	      0.00000000	      0.00000000	      0.00000000	      0.95990043	      3.02778038	      0.60578968	     -0.18575977	     -0.02730803	      0.42998483	     -0.95990043	     -3.02778038	     -0.60578968	     -0.08779508	      0.03888645	     -0.05439487	      0.00000000	      0.00000000	      0.00000000	      0.00000000	      0.00000000	      0.00000000	      0.00000000	      0.00000000	      0.00000000	      0.00000000	      0.00000000	      0.00000000	    279.54136878	    -52.18394098	     19.72655030	     -6.82451311	      7.32795012	    116.37044089	   -279.54136878	     52.18394098	    -19.72655030	     -1.12389793	     -9.44298172	     -9.32998099	    134.55525103	   -133.51835031	     43.39571453	    -20.45707917	     -2.52623278	     55.74325776	   -134.55525103	    133.51835031	    -43.39571453	      2.86234372	      0.67866555	     -6.87253541	      0.00000000	      0.00000000	    412.12736154	     34.54712125	      0.00000000	      0.00000000	     11.87264062	      0.00000000	     23.82959273	     36.80710304
      0.16074161	      0.00000000	     53.62841087	      0.00000000	      0.00000000	     18.58422877	     20.64011610	     39.72456326	      0.00000000	      0.00000000	      0.00000000	      0.00000000	      0.00000000	      0.62389187	      2.61831903	      0.32368593	     -0.07600132	     -0.01682091	      0.28478442	     -0.62389187	     -2.61831903	     -0.32368593	     -0.08309464	      0.02450031	     -0.04025241	      0.00000000	      0.00000000	      0.00000000	      0.00000000	      0.00000000	      0.00000000	      0.00000000	      0.00000000	      0.00000000	      0.00000000	      0.00000000	      0.00000000	    283.80412998	    -50.78553565	     19.14733666	     -6.61595453	      7.42466559	    118.15555750	   -283.80412998	     50.78553565	    -19.14733666	     -1.09689681	     -9.54626740	     -9.46198739	    133.17628919	   -130.39347866	     43.57183576	    -20.46385696	     -2.48654427	     55.17442400	   -133.17628919	    130.39347866	    -43.57183576	      2.82592260	      0.64992818	     -6.76076760	      0.00000000	      0.00000000	    408.44190794	     35.65009556	      0.00000000	      0.00000000	     11.83469458	      0.00000000	     23.73569868	     37.33845419
      0.16347941	      0.00000000	     53.77012642	      0.00000000	     45.30900141	     18.54425211	     20.58423243	     38.41609591	      0.00000000	      0.00000000	      0.00000000	      0.00000000	      0.00000000	      0.80091731	      2.19560775	      0.53122982	     -0.17441261	     -0.02304029	      0.35734740	     -0.80091731	     -2.19560775	     -0.53122982	     -0.06054019	      0.03299869	     -0.04427567	      0.00000000	      0.00000000	      0.00000000	      0.00000000	      0.00000000	      0.00000000	      0.00000000	      0.00000000	      0.00000000	      0.00000000	      0.00000000	      0.00000000	    276.62148132	    -49.38846892	     17.21870759	     -5.85428287	      7.24785149	    115.19189727	   -276.62148132	     49.38846892	    -17.21870759	     -1.09963344	     -9.27412772	     -9.28801682	    128.59634782	   -125.13699833	     43.49611942	    -20.33024491	     -2.37973414	     53.30425336	   -128.59634782	    125.13699833	    -43.49611942	      2.76178446	      0.58252831	     -6.53357736	      0.00000000	      0.00000000	    406.17252795	     40.44514933	      0.00000000	      0.00000000	     11.85130765	      0.00000000	     23.47362202	     37.94613002
      0.16695703	      0.00000000	     53.93747061	      0.00000000	     88.37528531	     18.44997343	     20.73611005	     36.77332519	      0.00000000	      1.60152974	      0.00000000	      0.00000000	      0.00000000	      1.07466361	      2.32307802	      0.77198976	     -0.27405870	     -0.03141520	      0.47511650	     -1.07466361	     -2.32307802	     -0.77198976	     -0.05681137	      0.04504106	     -0.05552533	      0.00000000	      0.00000000	      0.00000000	      0.00000000	      0.00000000	      0.00000000	      0.00000000	      0.00000000	      0.00000000	      0.00000000	      0.00000000	      0.00000000	    279.66105658	    -49.18380230	     15.11729868	     -4.97442657	      7.30459335	    116.50371406	   -279.66105658	     49.18380230	    -15.11729868	     -1.16012742	     -9.28800503	     -9.47109164	    128.92621684	   -118.97272887	     42.63094964	    -19.84728509	     -2.38763683	     53.39391424	   -128.92621684	    118.97272887	    -42.63094964	      2.66229644	      0.62445199	     -6.34301162	      0.00000000	      0.00000000	    401.46317445	     39.81124723	      0.00000000	      0.00000000	     12.38205247	      0.00000000	     23.09793962	     38.66009536
      0.16978182	      0.00000000	     54.06967297	      0.00000000	    107.67384867	     18.39579527	     20.49440095	     35.47407733	      0.00000000	      1.88847098	      0.00000000	      0.00000000	      0.00000000	      0.78581504	      2.48932327	      0.47965227	     -0.14624563	     -0.02251249	      0.35455159	     -0.78581504	     -2.48932327	     -0.47965227	     -0.07355971	      0.03270152	     -0.04732370	      0.00000000	      0.00000000	      0.00000000	      0.00000000	      0.00000000	      0.00000000	      0.00000000	      0.00000000	      0.00000000	      0.00000000	      0.00000000	      0.00000000	    277.39526104	    -47.32987133	     12.24740231	     -3.83281865	      7.22966771	    115.59452672	   -277.39526104	     47.32987133	    -12.24740231	     -1.17714567	     -9.12248296	     -9.43702285	    126.52085529	   -113.91114313	     42.87217645	    -19.83763791	     -2.34042277	     52.39235896	   -126.52085529	    113.91114313	    -42.87217645	      2.59960125	      0.59886641	     -6.14818310	      0.00000000	      0.00000000	    398.89271044	     41.90449412	      0.00000000	      0.00000000	     12.71456531	      0.00000000	     22.97725227	     39.55526051
      0.17170029	      0.00000000	     54.15427518	      0.00000000	     47.37133291	     18.33275656	     20.60026362	     34.60560043	      0.00000000	      1.84172724	      0.00000000	      0.00000000	      0.00000000	      0.64090103	      2.34585046	      0.33171402	     -0.08692689	     -0.01770532	      0.29224724	     -0.64090103	     -2.34585046	     -0.33171402	     -0.07371372	      0.02614248	     -0.04154211	      0.00000000	      0.00000000	      0.00000000	      0.00000000	      0.00000000	      0.00000000	      0.00000000	      0.00000000	      0.00000000	      0.00000000	      0.00000000	      0.00000000	    274.33744126	    -47.99922898	     11.50331648	     -3.49431230	      7.14239079	    114.37245439	   -274.33744126	     47.99922898	    -11.50331648	     -1.22937202	     -8.99298640	     -9.44129747	    123.24897111	   -110.25562444	     42.17970573	    -19.47952948	     -2.26902094	     51.04701819	   -123.24897111	    110.25562444	    -42.17970573	      2.53804003	      0.57233851	     -5.97908018	      0.00000000	      0.00000000	    397.41678039	     43.06514690	      0.00000000	      0.00000000	     12.87087140	      0.00000000	     22.85091687	     40.17177368
      0.17361876	      0.00000000	     54.23888452	      0.00000000	     76.12116988	     18.26699771	     20.58843193	     33.73770020	      0.00000000	      1.78062414	      0.00000000	      0.00000000	      0.00000000	      0.51945065	      2.02228096	      0.21448807	     -0.04492238	     -0.01358433	      0.23821698	     -0.51945065	     -2.02228096	     -0.21448807	     -0.06601121	      0.02052519	     -0.03499746	      0.00000000	      0.00000000	      0.00000000	      0.00000000	      0.00000000	      0.00000000	      0.00000000	      0.00000000	      0.00000000	      0.00000000	      0.00000000	      0.00000000	    273.06239212	    -49.93242975	     10.61285633	     -3.07386140	      7.12176775	    113.89029959	   -273.06239212	     49.93242975	    -10.61285633	     -1.31427627	     -8.93656787	     -9.52461754	    124.41651053	   -105.90730524	     41.54824447	    -19.13456331	     -2.29292652	     51.48082778	   -124.41651053	    105.90730524	    -41.54824447	      2.47000308	      0.61435820	     -5.85738904	      0.00000000	      0.00000000	    395.07159708	     41.45257985	      0.00000000	      0.00000000	     12.91770936	      0.00000000	     22.67853586	     40.78967591
      0.17414282	      0.00000000	     54.26029871	      0.00000000	     79.23045780	     18.24430558	     20.58296976	     33.50493316	      0.00000000	      1.76856291	      0.00000000	      0.00000000	      0.00000000	      0.57104262	      1.97682789	      0.26354504	     -0.06680442	     -0.01515154	      0.25981425	     -0.57104262	     -1.97682789	     -0.26354504	     -0.06266833	      0.02278807	     -0.03655697	      0.00000000	      0.00000000	      0.00000000	      0.00000000	      0.00000000	      0.00000000	      0.00000000	      0.00000000	      0.00000000	      0.00000000	      0.00000000	      0.00000000	    274.07336143	    -49.88243934	     10.28503150	     -2.93559287	      7.14488404	    114.31458431	   -274.07336143	     49.88243934	    -10.28503150	     -1.32488798	     -8.95568492	     -9.56457536	    123.34630613	   -104.96802763	     41.21747282	    -18.97666300	     -2.27870463	     51.04445255	   -123.34630613	    104.96802763	    -41.21747282	      2.44747214	      0.61673775	     -5.81214880	      0.00000000	      0.00000000	    394.34543877	     40.94509380	      0.00000000	      0.00000000	     12.94564322	      0.00000000	     22.61456445	     40.94058465
